<?xml version="1.0" encoding="UTF-8"?>
<svg version="1.1" xmlns="http://www.w3.org/2000/svg" width="500" height="500">
<path d="M0 0 C0.65513266 -0.00282738 1.31026531 -0.00565475 1.98525047 -0.00856781 C5.46193204 -0.02350952 8.93857275 -0.03276694 12.4152832 -0.03710938 C15.25167881 -0.0414702 18.08776615 -0.05527476 20.92407227 -0.078125 C36.30662951 -0.19957204 51.30298038 -0.19948817 66.38671875 3.203125 C67.37406006 3.40196289 68.36140137 3.60080078 69.37866211 3.80566406 C71.83257589 4.3093826 74.2648383 4.86281769 76.69921875 5.453125 C77.9975061 5.76781738 77.9975061 5.76781738 79.32202148 6.08886719 C119.61191001 16.16770222 155.75222308 36.19064396 186.234375 64.23828125 C188.22326915 66.0539142 190.26158993 67.78500886 192.32421875 69.515625 C201.23042249 77.31302426 208.64916919 86.56114887 215.8359375 95.91796875 C217.93716127 98.65135025 220.1477211 101.26858091 222.38671875 103.890625 C227.79501534 110.63717085 231.86971787 118.26450884 236.05371094 125.80419922 C237.26755624 127.98867614 238.50125809 130.16063834 239.73828125 132.33203125 C256.81969946 162.86791444 267.46936703 198.64143959 267.58984375 233.6953125 C267.59554382 234.99526154 267.6012439 236.29521057 267.6071167 237.634552 C267.61757614 240.38299951 267.62345007 243.13141826 267.62695312 245.87988281 C267.63131659 248.66094232 267.6451342 251.44168788 267.66796875 254.22265625 C267.7907624 269.48505689 267.73938398 284.2577067 264.38671875 299.203125 C264.18788086 300.19119141 263.98904297 301.17925781 263.78417969 302.19726562 C263.28020828 304.65035332 262.72684807 307.08197857 262.13671875 309.515625 C261.92692383 310.3811499 261.71712891 311.2466748 261.50097656 312.13842773 C251.42214153 352.42831626 231.39919979 388.56862933 203.3515625 419.05078125 C201.53592955 421.0396754 199.80483489 423.07799618 198.07421875 425.140625 C190.27681949 434.04682874 181.02869488 441.46557544 171.671875 448.65234375 C168.9384935 450.75356752 166.32126284 452.96412735 163.69921875 455.203125 C156.9526729 460.61142159 149.32533491 464.68612412 141.78564453 468.87011719 C139.60116761 470.08396249 137.42920541 471.31766434 135.2578125 472.5546875 C110.27686938 486.52873678 83.41508935 494.30119352 55.38671875 499.203125 C54.39430176 499.38415771 53.40188477 499.56519043 52.37939453 499.75170898 C46.61031288 500.54878209 40.76131234 500.40700143 34.94921875 500.44140625 C33.63751709 500.449478 32.32581543 500.45754974 30.97436523 500.46586609 C28.19384905 500.48084645 25.41335781 500.49069972 22.6328125 500.49829102 C19.83050148 500.50705628 17.02870175 500.52770936 14.2265625 500.55981445 C-9.96306833 500.83079841 -32.3839803 498.06563744 -55.61328125 491.203125 C-56.33225586 490.99494141 -57.05123047 490.78675781 -57.79199219 490.57226562 C-77.41683512 484.79764005 -96.13935208 475.77970335 -113.61328125 465.203125 C-114.1969043 464.85604492 -114.78052734 464.50896484 -115.38183594 464.15136719 C-128.51843075 456.29280323 -140.21941927 446.51284184 -151.46484375 436.1640625 C-153.43126939 434.36925219 -155.44686552 432.66124836 -157.48828125 430.953125 C-167.80634309 421.92222581 -176.36389301 411.09417128 -184.61328125 400.203125 C-185.64195312 398.86894531 -185.64195312 398.86894531 -186.69140625 397.5078125 C-210.67417498 365.62827845 -225.30592678 327.40855134 -231.61328125 288.203125 C-231.78456543 287.25042725 -231.95584961 286.29772949 -232.13232422 285.31616211 C-232.93843103 279.58684288 -232.81668215 273.79385751 -232.8515625 268.01953125 C-232.85963425 266.73239731 -232.86770599 265.44526337 -232.87602234 264.11912537 C-232.89100318 261.38988383 -232.90085548 258.6606677 -232.90844727 255.93139648 C-232.91720277 253.18441871 -232.93783132 250.43796419 -232.9699707 247.69116211 C-233.24909805 223.28941008 -230.57477959 200.59807185 -223.61328125 177.203125 C-223.30100586 176.12683838 -223.30100586 176.12683838 -222.98242188 175.02880859 C-217.20852327 155.40199479 -208.19076517 136.6785503 -197.61328125 119.203125 C-197.09266113 118.32769043 -197.09266113 118.32769043 -196.56152344 117.43457031 C-188.70381349 104.29940308 -178.92495006 92.60039074 -168.578125 81.35546875 C-166.76249205 79.3665746 -165.03139739 77.32825382 -163.30078125 75.265625 C-155.43894384 66.25991748 -145.94368888 58.61561551 -136.61328125 51.203125 C-135.66453125 50.42453125 -134.71578125 49.6459375 -133.73828125 48.84375 C-101.57442806 23.07984719 -61.0195396 7.70366888 -20.61328125 1.203125 C-19.6694458 1.03111572 -18.72561035 0.85910645 -17.75317383 0.68188477 C-11.87580659 -0.14512143 -5.92266708 0.0199201 0 0 Z " fill="#303030" transform="translate(232.61328125,-0.203125)"/>
<path d="M0 0 C-2.73514606 14.03624038 -5.73377219 27.99583379 -8.9140625 41.9375 C-9.37445994 43.96197714 -9.83477526 45.98647297 -10.29501343 48.01098633 C-11.2494911 52.20632097 -12.20609578 56.40116387 -13.1640625 60.59570312 C-14.39107154 65.96984038 -15.61080129 71.34560236 -16.82880592 76.7217865 C-17.77236371 80.88151244 -18.72059838 85.04016173 -19.67017746 89.19851685 C-20.12236189 91.18208205 -20.57288073 93.16602772 -21.02168655 95.15036011 C-21.64579583 97.90737331 -22.27640475 100.6628212 -22.90869141 103.41796875 C-23.09158218 104.23243469 -23.27447296 105.04690063 -23.46290588 105.88604736 C-24.29510163 109.48334129 -25.10302078 112.80606904 -27 116 C-31.13010537 113.70210404 -34.63386815 110.89854871 -38.1875 107.8125 C-39.33641497 106.82846349 -40.48616347 105.84539938 -41.63671875 104.86328125 C-42.20310059 104.37939941 -42.76948242 103.89551758 -43.35302734 103.39697266 C-45.70921335 101.39844073 -48.09697779 99.44187252 -50.5 97.5 C-51.2528125 96.8915625 -52.005625 96.283125 -52.78125 95.65625 C-55.1011794 93.92447172 -57.4943418 92.44692938 -60 91 C-67.68027088 99.99644025 -67.68027088 99.99644025 -75.125 109.1875 C-78.43454135 113.36127381 -81.93755632 117.30901802 -85.5234375 121.24609375 C-92.8241567 129.36440138 -99.81288247 137.76630553 -106.85717773 146.10693359 C-110.201459 150.06410388 -113.56440778 154.0048668 -116.9375 157.9375 C-117.43419189 158.51669189 -117.93088379 159.09588379 -118.44262695 159.69262695 C-120.99510418 162.66756041 -123.55069982 165.6397708 -126.109375 168.609375 C-130.6983591 173.94120634 -135.25877834 179.28329671 -139.6875 184.75 C-143.24267904 189.13151795 -146.96769537 193.31710681 -150.765625 197.48828125 C-153.00134533 200.00151232 -155.13377682 202.57311479 -157.25 205.1875 C-162.51589484 211.68917402 -168.00210549 217.98882318 -173.51220703 224.28320312 C-174.83819267 225.81328698 -176.13782406 227.36611942 -177.43359375 228.921875 C-178.11550781 229.73140625 -178.79742187 230.5409375 -179.5 231.375 C-180.0671875 232.06335938 -180.634375 232.75171875 -181.21875 233.4609375 C-183.59598753 235.51495414 -184.83784179 236.04166826 -188 236 C-190.30949805 234.42905703 -192.16458208 232.94500042 -194.1875 231.0625 C-195.35061166 230.02887697 -196.51468128 228.99633094 -197.6796875 227.96484375 C-198.2478418 227.45421387 -198.81599609 226.94358398 -199.40136719 226.41748047 C-201.47907587 224.57521159 -203.63184956 222.84364823 -205.8125 221.125 C-208.90670741 218.68220467 -211.96699141 216.20557616 -215 213.6875 C-215.71051514 213.10081543 -216.42103027 212.51413086 -217.15307617 211.90966797 C-218.56620782 210.74177737 -219.97540029 209.56909991 -221.38012695 208.39111328 C-224.77856044 205.59220647 -227.71680826 203.30898316 -232 202 C-238.69468904 209.6673332 -245.34985913 217.34762831 -251.7578125 225.2578125 C-254.30253683 228.37000148 -256.89618225 231.43726497 -259.5 234.5 C-263.61455375 239.34173757 -267.65730699 244.2356457 -271.66796875 249.1640625 C-274.80315963 252.97670669 -277.99413759 256.74073564 -281.1953125 260.49804688 C-283.85330151 263.62255607 -286.4541007 266.78350252 -289 270 C-292.50993519 269.38992097 -294.55458354 268.03156955 -297.3125 265.8125 C-298.48039062 264.87664062 -298.48039062 264.87664062 -299.671875 263.921875 C-302.8199148 261.32315758 -305.92381477 258.68348073 -309 256 C-308.43384016 252.11649732 -306.66155353 250.24229686 -304 247.4375 C-299.94358989 243.06118373 -296.13654446 238.55454708 -292.3828125 233.91796875 C-289.79244248 230.74582711 -287.15321062 227.61953249 -284.5 224.5 C-281.14539595 220.55361117 -277.82777828 216.58357507 -274.5625 212.5625 C-270.66706022 207.77131738 -266.64857854 203.09838647 -262.60424805 198.43334961 C-258.37518814 193.51962986 -254.37376066 188.44722579 -250.47705078 183.26635742 C-249.36241494 181.80919235 -248.18656764 180.39921418 -247 179 C-246.34 179 -245.68 179 -245 179 C-244.75507813 178.43796875 -244.51015625 177.8759375 -244.2578125 177.296875 C-242.77073461 174.58134146 -240.95937218 172.53608562 -238.875 170.25 C-237.78832031 169.05117188 -237.78832031 169.05117188 -236.6796875 167.828125 C-236.12539062 167.22484375 -235.57109375 166.6215625 -235 166 C-229.94746904 167.52728597 -226.71201942 170.60584939 -222.875 174.0625 C-221.53488376 175.24725937 -220.19373151 176.43084789 -218.8515625 177.61328125 C-217.86784668 178.48267334 -217.86784668 178.48267334 -216.86425781 179.36962891 C-212.67556867 183.032812 -208.3263448 186.50196864 -204 190 C-201.93538602 191.68492996 -199.8740744 193.37384734 -197.8125 195.0625 C-196.89082031 195.81660156 -195.96914062 196.57070313 -195.01953125 197.34765625 C-194.35308594 197.89292969 -193.68664062 198.43820312 -193 199 C-186.12661721 192.1997383 -179.63123323 185.09121572 -173.5625 177.5625 C-169.90428985 173.02683557 -166.05257035 168.7429883 -162.08618164 164.48071289 C-159.09573 161.24806025 -156.26220993 157.93303234 -153.5 154.5 C-149.86500611 149.98222187 -146.0328971 145.72181484 -142.0859375 141.48046875 C-139.09558642 138.24788253 -136.26213671 134.93294134 -133.5 131.5 C-129.86500611 126.98222187 -126.0328971 122.72181484 -122.0859375 118.48046875 C-119.09558642 115.24788253 -116.26213671 111.93294134 -113.5 108.5 C-110.30067413 104.52369499 -106.9740667 100.73340604 -103.5 97 C-99.13969341 92.31193067 -95.02363101 87.48018251 -91.01953125 82.48046875 C-89.20285479 80.24915434 -87.31306705 78.12519076 -85.375 76 C-84.59125 75.01 -83.8075 74.02 -83 73 C-84.1753336 69.47399921 -85.15745746 68.84621784 -88.0625 66.625 C-88.94808594 65.93664062 -89.83367187 65.24828125 -90.74609375 64.5390625 C-91.5038208 63.9517334 -91.5038208 63.9517334 -92.27685547 63.35253906 C-95.76396094 60.61542312 -99.18899717 57.80077862 -102.625 55 C-104.03378288 53.85407902 -105.44263156 52.70823893 -106.8515625 51.5625 C-107.90108501 50.70838659 -108.95058166 49.85424139 -110 49 C-106.68005113 45.12324965 -102.84016462 43.29701708 -98.24609375 41.3125 C-97.48171997 40.97345642 -96.71734619 40.63441284 -95.92980957 40.28509521 C-93.43610644 39.18137343 -90.93691679 38.09071298 -88.4375 37 C-86.70150855 36.23429505 -84.96591557 35.46768608 -83.23071289 34.70019531 C-79.76133444 33.16715062 -76.28991005 31.6389086 -72.81640625 30.11523438 C-66.5132862 27.34956702 -60.22545525 24.54995939 -53.9375 21.75 C-51.81382888 20.80723131 -49.69013096 19.86452298 -47.56640625 18.921875 C-38.94369743 15.08955997 -30.33489704 11.22622879 -21.72631836 7.36230469 C-19.4902843 6.35867433 -17.25312976 5.35753509 -15.01464844 4.359375 C-13.0926706 3.49271055 -11.17823014 2.60898947 -9.27441406 1.703125 C-8.47487305 1.32671875 -7.67533203 0.9503125 -6.8515625 0.5625 C-5.8318335 0.06943359 -5.8318335 0.06943359 -4.79150391 -0.43359375 C-3 -1 -3 -1 0 0 Z " fill="#FE5658" transform="translate(399,64)"/>
<path d="M0 0 C1.30066406 -0.00128906 2.60132813 -0.00257813 3.94140625 -0.00390625 C4.96258545 -0.00076416 4.96258545 -0.00076416 6.00439453 0.00244141 C8.08503515 0.0077901 10.16545989 0.0024957 12.24609375 -0.00390625 C14.19708984 -0.00197266 14.19708984 -0.00197266 16.1875 0 C17.39083984 0.00112793 18.59417969 0.00225586 19.83398438 0.00341797 C22.59375 0.1328125 22.59375 0.1328125 23.59375 1.1328125 C23.68953593 2.6509977 23.71563147 4.17363646 23.71400452 5.69483948 C23.71607076 7.17049676 23.71607076 7.17049676 23.71817875 8.67596531 C23.71458064 9.7684656 23.71098253 10.8609659 23.70727539 11.98657227 C23.70739593 13.14641852 23.70751646 14.30626478 23.70764065 15.5012579 C23.70689108 19.27559733 23.69926083 23.04988809 23.69140625 26.82421875 C23.68993697 29.14644344 23.68891617 31.46866846 23.68835449 33.79089355 C23.68310001 42.4257049 23.66913896 51.06050917 23.65625 59.6953125 C23.635625 78.9796875 23.615 98.2640625 23.59375 118.1328125 C66.49375 118.1328125 109.39375 118.1328125 153.59375 118.1328125 C153.59375 121.7628125 153.59375 125.3928125 153.59375 129.1328125 C66.47375 129.1328125 -20.64625 129.1328125 -110.40625 129.1328125 C-110.40625 125.5028125 -110.40625 121.8728125 -110.40625 118.1328125 C-104.13625 118.1328125 -97.86625 118.1328125 -91.40625 118.1328125 C-91.41148682 116.44164307 -91.41672363 114.75047363 -91.42211914 113.00805664 C-91.43821803 107.43209054 -91.44972285 101.85612777 -91.45806217 96.28014469 C-91.46328975 92.89809437 -91.47038511 89.5160691 -91.48168945 86.1340332 C-91.49459267 82.24951473 -91.49947924 78.36500653 -91.50390625 74.48046875 C-91.50906754 73.26069839 -91.51422882 72.04092804 -91.51954651 70.78419495 C-91.51965981 69.10256508 -91.51965981 69.10256508 -91.51977539 67.38696289 C-91.521996 66.39434952 -91.52421661 65.40173615 -91.52650452 64.37904358 C-91.40625 62.1328125 -91.40625 62.1328125 -90.40625 61.1328125 C-88.27271826 61.03277961 -86.13587458 61.00200202 -84 61 C-82.69933594 60.99871094 -81.39867187 60.99742187 -80.05859375 60.99609375 C-79.03741455 60.99923584 -79.03741455 60.99923584 -77.99560547 61.00244141 C-75.91496485 61.0077901 -73.83454011 61.0024957 -71.75390625 60.99609375 C-69.80291016 60.99802734 -69.80291016 60.99802734 -67.8125 61 C-66.60916016 61.00112793 -65.40582031 61.00225586 -64.16601562 61.00341797 C-61.40625 61.1328125 -61.40625 61.1328125 -60.40625 62.1328125 C-60.31259994 63.8820997 -60.28880562 65.63517504 -60.29272461 67.38696289 C-60.29280014 68.50804947 -60.29287567 69.62913605 -60.29295349 70.78419495 C-60.29811478 72.0039653 -60.30327606 73.22373566 -60.30859375 74.48046875 C-60.3100087 75.72203232 -60.31142365 76.96359589 -60.31288147 78.24278259 C-60.31754409 81.54886741 -60.32653503 84.85488396 -60.33758545 88.16094971 C-60.34780173 91.532424 -60.35237955 94.90390533 -60.35742188 98.27539062 C-60.36847605 104.89455268 -60.3857534 111.51367321 -60.40625 118.1328125 C-56.77625 118.1328125 -53.14625 118.1328125 -49.40625 118.1328125 C-49.40847061 117.02003433 -49.41069122 115.90725616 -49.41297913 114.76075745 C-49.43320955 104.2978912 -49.44822166 93.83502889 -49.45806217 83.37214756 C-49.46329125 77.99247488 -49.47038935 72.61281792 -49.48168945 67.2331543 C-49.49251745 62.04606407 -49.49852665 56.85898901 -49.50112724 51.67188835 C-49.50298165 49.6882497 -49.50660256 47.70461192 -49.51198006 45.72097969 C-49.51918932 42.95272114 -49.52024099 40.18452612 -49.51977539 37.41625977 C-49.52337067 36.58763931 -49.52696594 35.75901886 -49.53067017 34.9052887 C-49.52030216 29.24686466 -49.52030216 29.24686466 -48.40625 28.1328125 C-46.27271826 28.03277961 -44.13587458 28.00200202 -42 28 C-40.69933594 27.99871094 -39.39867187 27.99742187 -38.05859375 27.99609375 C-37.03741455 27.99923584 -37.03741455 27.99923584 -35.99560547 28.00244141 C-33.91496485 28.0077901 -31.83454011 28.0024957 -29.75390625 27.99609375 C-27.80291016 27.99802734 -27.80291016 27.99802734 -25.8125 28 C-24.60916016 28.00112793 -23.40582031 28.00225586 -22.16601562 28.00341797 C-19.40625 28.1328125 -19.40625 28.1328125 -18.40625 29.1328125 C-18.31107197 31.90220216 -18.28070735 34.64658409 -18.29272461 37.41625977 C-18.29257858 38.28447357 -18.29243256 39.15268738 -18.2922821 40.04721069 C-18.29298154 42.93123836 -18.30077537 45.8152023 -18.30859375 48.69921875 C-18.31045782 50.69319117 -18.31188177 52.68716405 -18.31288147 54.68113708 C-18.31670752 59.94026952 -18.32653855 65.19937453 -18.33758545 70.45849609 C-18.3477977 75.82063425 -18.35237869 81.18277681 -18.35742188 86.54492188 C-18.36816074 97.07423083 -18.3852382 107.60351939 -18.40625 118.1328125 C-14.77625 118.1328125 -11.14625 118.1328125 -7.40625 118.1328125 C-7.40847061 116.6692482 -7.41069122 115.2056839 -7.41297913 113.69776917 C-7.43320715 99.93848529 -7.44828047 86.17920256 -7.45806217 72.41990757 C-7.463225 65.34528063 -7.47026744 58.27066476 -7.48168945 51.19604492 C-7.49269681 44.37502372 -7.49852618 37.55401406 -7.50112724 30.73298454 C-7.50298205 28.12414302 -7.5066037 25.51530217 -7.51198006 22.90646553 C-7.51918643 19.26648698 -7.52024111 15.62655675 -7.51977539 11.98657227 C-7.52337067 10.89613113 -7.52696594 9.80569 -7.53067017 8.6822052 C-7.5292955 7.69637451 -7.52792084 6.71054382 -7.52650452 5.69483948 C-7.52742631 4.83296304 -7.5283481 3.9710866 -7.52929783 3.08309269 C-7.25431246 -1.2753631 -3.57339837 0.00334946 0 0 Z " fill="#FB5657" transform="translate(232.40625,315.8671875)"/>
<path d="M0 0 C1.21407254 3.47199702 0.79517398 5.33605514 -0.53881836 8.72094727 C-0.89926743 9.65193741 -1.25971649 10.58292755 -1.63108826 11.54212952 C-2.02997757 12.54014084 -2.42886688 13.53815216 -2.83984375 14.56640625 C-3.24078751 15.59684555 -3.64173126 16.62728485 -4.05482483 17.68894958 C-5.33867293 20.98430271 -6.63716717 24.27362053 -7.9375 27.5625 C-9.23217601 30.85570462 -10.52366606 34.15008053 -11.8094635 37.44676208 C-12.61063777 39.49899887 -13.41732423 41.54909373 -14.22996521 43.59681702 C-14.59356644 44.524655 -14.95716766 45.45249298 -15.33178711 46.40844727 C-15.65457138 47.22467056 -15.97735565 48.04089386 -16.30992126 48.8818512 C-17.15488412 51.10411839 -17.15488412 51.10411839 -17 54 C1.15 54.33 19.3 54.66 38 55 C36.31960844 71.8039156 31.10951066 86.06915074 18.26953125 97.546875 C6.32764048 107.10038762 -8.65597594 112.51942219 -24 111 C-39.65892528 108.79703333 -53.23728111 101.60464196 -63.1875 89.25 C-71.43892271 77.49172264 -76.691396 63.50841904 -75 49 C-72.03054662 33.09905608 -66.21250337 19.08036727 -53.1875 8.6875 C-36.21355328 -2.91919084 -19.58832168 -5.23185698 0 0 Z " fill="#FD5657" transform="translate(352,290)"/>
<path d="M0 0 C3.70301279 0.62460959 6.8862466 1.66869543 10.33203125 3.15234375 C11.36577881 3.59408936 12.39952637 4.03583496 13.46459961 4.4909668 C14.56940674 4.96832275 15.67421387 5.44567871 16.8125 5.9375 C19.1638014 6.94331894 21.51536996 7.94851351 23.8671875 8.953125 C25.05795898 9.46294922 26.24873047 9.97277344 27.47558594 10.49804688 C32.78298578 12.75983157 38.10920208 14.97550025 43.4375 17.1875 C45.43106642 18.0167424 47.42455754 18.84616582 49.41796875 19.67578125 C50.36462402 20.06975098 51.3112793 20.4637207 52.28662109 20.86962891 C59.53460472 23.88907863 66.77185909 26.93336148 74 30 C75.12647949 30.47791992 76.25295898 30.95583984 77.41357422 31.44824219 C80.54630515 32.77845549 83.67744601 34.11236428 86.80773926 35.44830322 C88.6403872 36.22990692 90.4739901 37.00927034 92.30761719 37.78857422 C98.30657095 40.3538605 104.20587218 42.99934194 110 46 C107.34254236 49.51884046 104.64926771 52.27738085 101.1875 55 C96.52922211 58.73159778 91.99436783 62.57276098 87.5 66.5 C82.36823757 70.97591946 77.16812321 75.34009074 71.875 79.625 C68.36452247 82.5249597 64.93170065 85.50761195 61.5 88.5 C56.35821693 92.98289358 51.15382032 97.36318325 45.8515625 101.65625 C40.15261101 106.34031972 34.58513663 111.18129088 29 116 C25.55360764 113.7024051 25.483254 113.17016713 24.54541016 109.33276367 C24.30150543 108.35961716 24.05760071 107.38647064 23.80630493 106.38383484 C23.42651993 104.79198112 23.42651993 104.79198112 23.0390625 103.16796875 C22.63039444 101.51562981 22.63039444 101.51562981 22.21347046 99.82991028 C21.33960735 96.28504602 20.48219403 92.73642775 19.625 89.1875 C19.05574734 86.86888016 18.485446 84.55051752 17.9140625 82.23242188 C15.15334292 71.00229179 12.45298623 59.75776358 9.78527832 48.50520325 C8.58150507 43.42917587 7.36183229 38.35734299 6.12741089 33.28868103 C5.3212178 29.97530009 4.52152055 26.66036942 3.72265625 23.34521484 C3.31625827 21.66550293 2.90697063 19.98648808 2.49511719 18.30810547 C1.88764324 15.82955508 1.29045681 13.34872303 0.6953125 10.8671875 C0.50897247 10.11734589 0.32263245 9.36750427 0.13064575 8.59494019 C-1.11388733 3.34166198 -1.11388733 3.34166198 0 0 Z " fill="#FD5658" transform="translate(110,65)"/>
<path d="M0 0 C-2.49823939 14.69864452 -5.02969535 29.39178037 -7.6875 44.0625 C-7.88947998 45.20243408 -8.09145996 46.34236816 -8.29956055 47.5168457 C-8.49332275 48.57476318 -8.68708496 49.63268066 -8.88671875 50.72265625 C-9.05389404 51.64828369 -9.22106934 52.57391113 -9.39331055 53.52758789 C-9.98276505 55.92976322 -10.80019855 57.84627611 -12 60 C-16.67570107 58.45028847 -20.12681787 55.87717416 -24 52.9375 C-25.34532198 51.93351124 -26.69169332 50.9309272 -28.0390625 49.9296875 C-28.7084082 49.43178711 -29.37775391 48.93388672 -30.06738281 48.42089844 C-33.83022807 45.65438007 -37.69094879 43.03289077 -41.5390625 40.38671875 C-61.79343814 26.44918395 -61.79343814 26.44918395 -71 19 C-68.29562484 15.39847553 -64.4976852 14.79580781 -60.34375 13.765625 C-59.57678299 13.56655045 -58.80981598 13.36747589 -58.01960754 13.16236877 C-55.51552714 12.51489225 -53.0079847 11.88216824 -50.5 11.25 C-48.77866539 10.80906267 -47.05755616 10.36724458 -45.33666992 9.92456055 C-41.87449103 9.03493776 -38.41102701 8.15056392 -34.94677734 7.26904297 C-30.48306232 6.12928146 -26.03087275 4.95022009 -21.58203125 3.75390625 C-20.34195313 3.42293945 -19.101875 3.09197266 -17.82421875 2.75097656 C-15.52722585 2.13712501 -13.23158437 1.51818819 -10.9375 0.89355469 C-9.92300781 0.62575195 -8.90851563 0.35794922 -7.86328125 0.08203125 C-6.98969971 -0.15281982 -6.11611816 -0.3876709 -5.21606445 -0.62963867 C-3 -1 -3 -1 0 0 Z " fill="#FC5657" transform="translate(132,196)"/>
<path d="M0 0 C13.21102803 3.03006283 26.35439828 6.31102418 39.47998047 9.69116211 C41.76727817 10.27820119 44.05572076 10.86079522 46.34521484 11.43920898 C49.68851109 12.28414768 53.02810938 13.14246987 56.3671875 14.00390625 C57.39206268 14.26023331 58.41693787 14.51656036 59.47286987 14.78065491 C60.41881012 15.02778732 61.36475037 15.27491974 62.33935547 15.52954102 C63.16966278 15.74175797 63.99997009 15.95397491 64.85543823 16.17262268 C67.19812293 17.07643632 68.37833166 18.11082415 70 20 C63.91811931 25.12309009 57.60900867 29.66023934 50.96166992 33.9987793 C46.07824677 37.21391819 41.39868388 40.64300999 36.75 44.1875 C31.43112904 48.24253797 26.06251088 52.03463909 20.33203125 55.5 C17.86683066 57.00939112 17.86683066 57.00939112 15.38671875 59.25 C14.59910156 59.8275 13.81148438 60.405 13 61 C12.01 60.67 11.02 60.34 10 60 C8.30487949 51.67229389 6.64168398 43.33839921 5 35 C4.79419312 33.9554364 4.79419312 33.9554364 4.58422852 32.88977051 C3.72492005 28.52059322 2.87605022 24.14955011 2.03863525 19.77612305 C1.7630927 18.34315541 1.48489763 16.91069525 1.20404053 15.47875977 C0.80845052 13.458511 0.4225867 11.43663158 0.0390625 9.4140625 C-0.18571777 8.2482666 -0.41049805 7.0824707 -0.64208984 5.88134766 C-1 3 -1 3 0 0 Z " fill="#FC5657" transform="translate(374,196)"/>
<path d="M0 0 C14.09038385 7.5598186 22.90132506 17.05015081 29 32 C32 42.3258427 32 42.3258427 32 47 C15.5 47 -1 47 -18 47 C-12.21034375 31.23926909 -6.34552523 15.54476432 0 0 Z " fill="#FD5657" transform="translate(365,289)"/>
</svg>
